<svg xmlns="http://www.w3.org/2000/svg" xmlns:xlink="http://www.w3.org/1999/xlink" xmlns:xodm="http://www.corel.com/coreldraw/odm/2003" xml:space="preserve" version="1.1" style="shape-rendering:geometricPrecision;text-rendering:geometricPrecision;image-rendering:optimizeQuality;" viewBox="0 0 60000 75000" x="0px" y="0px" fill-rule="evenodd" clip-rule="evenodd"><defs><style type="text/css">
   
    .fil0 {fill:black;fill-rule:nonzero}
   
  </style></defs><g><path class="fil0" d="M36473.12 8522.49l-17631.39 6905.84c19.74,110.44 45,206.73 75.65,289.09 51.1,137.33 113.46,230.55 186.47,281.14 62.14,43.06 147.05,59.76 253.68,51.01 92.71,-7.6 195.97,-32.73 309.38,-74.94l15914.76 -5922.8 -0.19 -0.51c273.49,-103.64 551.73,-257.45 732.93,-457.69 117.36,-129.7 191.62,-281.32 184.51,-452.01l-25.8 -619.13zm-4238.47 -3034.19c-5078.87,984.89 -10177.32,1438.52 -15249.97,1496.34 -5390.34,61.44 -10750.66,-324.35 -16026.81,-994.42 -136.45,-17.25 -233.07,-141.87 -215.82,-278.32 17.25,-136.45 141.87,-233.07 278.32,-215.82 5255.27,667.42 10593.53,1051.69 15960.41,990.52 5208.36,-59.36 10444.63,-538.66 15659.37,-1586.31 33.44,-26.15 68.66,-51.55 105.59,-76.18 118,-78.7 256.2,-150.58 410.97,-214.14 22.2,-503.85 209.96,-870.53 488.94,-1125.86 339.07,-310.34 797.56,-436.3 1245.58,-436.3 412.19,0 792.05,124.7 1072.98,326.28 318.32,228.4 515.21,555.23 515.21,926.31 0,27.93 -1.54,42.66 -3.02,111.62 -1.34,62.46 -31.97,98.52 -17.14,103.22 331.74,105.21 611.68,248.44 814.24,418.83 157.27,132.28 270.6,281.56 332.04,444.95 3463.49,1377.46 7279.16,2518.12 11222.16,3299.44 3759.68,744.98 6238.55,1162.68 10020.49,1146.87 220.05,-0.86 399.14,176.83 400,396.88 0.86,220.05 -176.83,399.14 -396.88,400 -3844.6,16.08 -6375.65,-406.18 -10176.73,-1159.37 -3924.64,-777.68 -7728.42,-1908.83 -11193.94,-3275.08 -158.73,215.77 -417.21,398.52 -749.06,537.23 -392.37,163.99 -904.22,275.35 -1469.71,306.56 10.76,33.6 17.22,69.2 18.67,106.18l40.76 978.31 1381.62 -541.15 0.16 0.4c40.3,-15.74 83.85,-25.17 129.52,-26.96 220.05,-8.63 405.44,162.76 414.07,382.81l49.13 1179.22c16.8,403.02 -140.75,741.35 -390.77,1017.65 -277.14,306.26 -668.36,528.48 -1042.29,670.19l-0.2 -0.53 -514.96 191.65c3568.56,1472.46 7538.21,2768.44 11651.53,3675.56 3890.89,858.07 7910.76,1368.69 11841.58,1352.26 137.52,-0.54 249.46,110.52 250,248.04 0.54,137.52 -110.52,249.46 -248.04,250 -3969.53,16.6 -8026.27,-498.46 -11950.96,-1363.98 -4336.69,-956.39 -8511.57,-2340.22 -12228.92,-3907.02l-3655.41 1360.39 0 609.54c15.79,2.71 31.54,6.97 47.06,12.91 4178.46,1606.68 8898.32,3028.85 13807.37,4004.21 4324.94,859.3 9511.47,1370.66 13876.58,1354.22 137.52,0 249.02,111.5 249.02,249.02 0,137.52 -111.5,249.02 -249.02,249.02 -4403.97,16.59 -9622.21,-497.73 -13972.28,-1362.02 -4881.23,-969.83 -9582.58,-2381.84 -13758.73,-3979.55l0 3339.84c0,417.45 -162.83,799.37 -428.26,1085.49 -259.2,279.42 -617.06,466.61 -1016.99,505.15l0 4059.73 1.7 -0.02 2331.78 0c246.25,0 466.26,113.99 622.36,297.63 140.32,165.09 227.43,388.9 227.43,631.54 0,242.64 -87.11,466.44 -227.43,631.53 -156.1,183.64 -376.13,297.63 -622.36,297.63l-2331.78 0 -1.7 -0.02 0 31915.94c0,220.91 -179.09,400 -400,400 -220.91,0 -400,-179.09 -400,-400l0 -43066.2 -1690.32 629.06 0 42494.71c0,220.91 -179.09,400 -400,400 -220.91,0 -400,-179.09 -400,-400l0 -33127.5c-16.32,2.03 -32.93,3.08 -49.79,3.08l-2331.78 0c-246.23,0 -466.26,-114 -622.36,-297.63 -140.32,-165.09 -227.43,-388.89 -227.43,-631.53 0,-242.64 87.11,-466.45 227.43,-631.54 156.1,-183.63 376.11,-297.63 622.36,-297.63l2331.78 0c16.86,0 33.47,1.05 49.79,3.08l0 -7217.31 -6326.76 2354.56c-187.38,69.74 -362.54,111.61 -525,124.94 -291.81,23.94 -548.9,-38.89 -769.3,-191.63 -209.55,-145.21 -370.4,-364.14 -480.23,-659.28 -82.42,-221.47 -136.86,-485.9 -162.17,-794.39l0.32 -0.03c-13.46,-170.84 84.95,-337.51 252.81,-403.1l569.22 -222.95 -42.99 -1031.66c-382.96,-30.74 -729.68,-110.97 -1001.73,-224.68 -236.85,-99 -427.07,-228.11 -555.71,-381.09 -2572.82,515.2 -5150.69,892.99 -7727.7,1150.95 -2745.54,274.83 -5492.21,413.63 -8232.54,437.7 -137.52,1.07 -249.9,-109.55 -250.97,-247.07 -1.07,-137.52 109.55,-249.9 247.07,-250.97 2722.19,-23.92 5453.69,-162.1 8187.62,-435.76 2531.36,-253.38 5063.13,-623.03 7589.61,-1125.74 -0.13,-5.73 -0.21,-11.47 -0.21,-17.23 0,-281.71 159.58,-522.49 435.54,-706.55 75.57,-50.4 161.55,-97.11 256.37,-139.46 30.82,-364.41 176.54,-634.78 387.22,-827.61 269.62,-246.77 630.31,-346.95 981.13,-346.95 323.34,0 622.81,98.85 845.52,258.67 260.1,186.64 420.99,455.75 420.99,763.1 0,36.39 -1.32,23.81 -2.62,83.07 216.81,77.57 402.28,178.35 542.8,296.56 204.63,172.11 319.71,381.49 319.71,619.17 0,372.47 -283.88,677.38 -742.83,869.21 -248.1,103.7 -558.31,179.57 -901.47,215.43l30.55 733.3 6655.75 -2606.92 0 -940.6c0,-453.28 185.15,-865.09 483.44,-1163.36 298.27,-298.29 710.08,-483.44 1163.36,-483.44 451.46,0 863.02,170.14 1161.42,455.51 234.58,224.35 398.55,517.14 457.73,852.69l5004.65 -1960.22c-5.34,-23.55 -8.62,-47.91 -9.6,-72.91l-49.13 -1179.22c-1.98,-50.51 5.54,-99.19 20.95,-144.33 -523.1,-38.64 -995.49,-146.06 -1363.03,-299.67 -31.2,-13.04 -61.72,-26.49 -91.6,-40.31 -5318.36,1084.99 -10660.56,1579.87 -15974.46,1640.44 -5390.34,61.44 -10750.66,-324.35 -16026.81,-994.42 -136.45,-17.25 -233.07,-141.87 -215.82,-278.32 17.25,-136.45 141.87,-233.07 278.32,-215.82 5255.27,667.42 10593.53,1051.69 15960.41,990.52 5124.27,-58.41 10275.56,-523.29 15406.79,-1536.01 -169.66,-182.05 -263.78,-391.68 -263.78,-621.08 0,-62.15 6.79,-122.75 20.02,-181.69zm-2672.54 18302.16l1.7 -0.02 2331.78 0c1.14,0 6.04,-5.09 12.98,-13.25 22.7,-26.71 36.81,-67.51 36.81,-115.91 0,-48.4 -14.11,-89.21 -36.81,-115.92 -6.94,-8.16 -11.84,-13.25 -12.98,-13.25l-2331.78 0 -1.7 -0.02 0 258.37zm-3340.11 -1150.95c16.86,0 33.47,1.05 49.79,3.08l0 -264.49c-16.32,2.03 -32.93,3.08 -49.79,3.08l-2331.78 0c-1.14,0 -6.04,5.08 -12.98,13.25 -22.7,26.71 -36.81,67.52 -36.81,115.92 0,48.4 14.11,89.2 36.81,115.91 6.94,8.17 11.84,13.25 12.98,13.25l2331.78 0zm-8338.98 -10210.82c19.2,22.77 34.5,49.23 44.66,78.54 41.73,20.93 97.57,46.01 164.54,74 260.23,108.77 628.88,176.05 1044.24,176.05 415.36,0 784.01,-67.28 1044.24,-176.05 153.89,-64.32 249.09,-113.32 249.09,-131.71 0,-11.74 -11.6,7.55 -32.21,-9.79 -74.76,-62.89 -198.27,-122.17 -358.72,-173.05 -481.28,-152.64 -475.87,-403.4 -468.47,-748.06 0.24,-11.13 -0.49,20.86 -0.49,-67.9 0,-36.04 -33.11,-77.83 -86.61,-116.22 -90.87,-65.21 -224.71,-105.55 -379.9,-105.55 -172.9,0 -339.15,38.82 -443.63,134.45 -28.52,26.1 -53.54,58.32 -74.01,97.35 101.6,54.19 179.02,151.76 203.36,273.47 43.15,215.73 -96.77,425.61 -312.5,468.76 -235.85,47.8 -427.97,118.32 -554.18,202.49 -15.13,10.09 -28.34,17.55 -39.41,23.22zm16300.13 -8357.08c-86.68,79.33 -154.73,187.98 -194.04,331.48 158.97,26.09 292.7,147.77 326.16,315.06 43.15,215.73 -96.77,425.61 -312.5,468.76 -342.53,69.43 -624.5,173.8 -813.27,299.7 -110.8,73.9 -174.87,138.2 -174.87,183.38 0,90.95 165.56,205.63 433.21,317.5 373.99,156.31 899.8,253 1488.74,253 588.94,0 1114.75,-96.69 1488.74,-253 267.65,-111.87 433.21,-226.55 433.21,-317.5 0,-30.19 -35.11,-74.04 -97.53,-126.54 -118.18,-99.41 -304.85,-190.39 -542.36,-265.71 -554.29,-175.8 -547.89,-472.95 -539.12,-881.34 0.04,-2.27 -0.1,3.63 -0.1,-96 0,-99.77 -69.11,-199.27 -180.83,-279.43 -149.08,-106.98 -363.33,-173.16 -607.36,-173.16 -270.1,0 -534.16,64.61 -708.08,223.8zm-4621.04 9070.82l0 4723.41c168.83,-33.17 319.29,-120.19 432.61,-242.35 131.79,-142.06 212.64,-332.61 212.64,-541.73l0 -4179.47 -645.25 240.14zm-2490.32 -1795.23l1690.96 -662.31c-0.41,-7.45 -0.64,-14.96 -0.64,-22.52 0,-224.81 -88.63,-418.39 -232.1,-555.6 -153.04,-146.36 -369.5,-233.63 -611.41,-233.63 -232.46,0 -444.09,95.39 -597.75,249.06 -153.67,153.66 -249.06,365.29 -249.06,597.74l0 627.26z"/></g><text x="0" y="60015" fill="#000000" font-size="5px" font-weight="bold" font-family="'Helvetica Neue', Helvetica, Arial-Unicode, Arial, Sans-serif">Created by Olena Panasovska</text><text x="0" y="60020" fill="#000000" font-size="5px" font-weight="bold" font-family="'Helvetica Neue', Helvetica, Arial-Unicode, Arial, Sans-serif">from the Noun Project</text></svg>